<svg width="20" height="16" viewBox="0 0 20 16" fill="none" xmlns="http://www.w3.org/2000/svg">
<path d="M19.2505 7.90387C19.2505 8.34685 18.9214 8.71294 18.4943 8.77088L18.3755 8.77887L0.875538 8.77887C0.39229 8.77887 0.000537872 8.38712 0.000537872 7.90387C0.000537872 7.46089 0.329718 7.0948 0.756807 7.03686L0.875538 7.02887L18.3755 7.02887C18.8588 7.02887 19.2505 7.42062 19.2505 7.90387Z" fill="#212121"/>
<path d="M8.55054 14.3121C8.89299 14.6531 8.89418 15.2071 8.55321 15.5496C8.24323 15.8609 7.75719 15.8902 7.41409 15.6367L7.31577 15.5522L0.257439 8.52422C-0.0548048 8.21332 -0.083209 7.72552 0.172237 7.38243L0.257387 7.28417L7.31572 0.255002C7.65814 -0.0859986 8.21215 -0.0848516 8.55316 0.257564C8.86316 0.568851 8.89039 1.05502 8.63552 1.39704L8.55059 1.495L2.11522 7.90452L8.55054 14.3121Z" fill="#212121"/>
</svg>
